<svg width="75" height="77" viewBox="0 0 75 77" fill="none" xmlns="http://www.w3.org/2000/svg">
<circle cx="34" cy="34" r="33.5" fill="#FADF38"/>
<circle cx="34" cy="34" r="33.5" stroke="black"/>
<circle cx="34" cy="34" r="33.5" stroke="black" stroke-opacity="0.2"/>
<g filter="url(#filter0_d_19_6)">
<path d="M52.0313 52.0313L15.9687 15.9687M52.0313 52.0313C56.8135 47.2491 59.5002 40.7631 59.5002 34C59.5002 27.2369 56.8135 20.7509 52.0313 15.9687C47.2491 11.1865 40.7631 8.49985 34 8.49985C27.2369 8.49985 20.7509 11.1865 15.9687 15.9687L52.0313 52.0313ZM52.0313 52.0313C47.2491 56.8135 40.7631 59.5002 34 59.5002C27.2369 59.5002 20.7509 56.8135 15.9687 52.0313C11.1865 47.2491 8.49985 40.7631 8.49985 34C8.49985 27.2369 11.1865 20.7509 15.9687 15.9687L52.0313 52.0313Z" stroke="black" stroke-width="2" stroke-linecap="round" stroke-linejoin="round"/>
</g>
<defs>
<filter id="filter0_d_19_6" x="0" y="0" width="82" height="76" filterUnits="userSpaceOnUse" color-interpolation-filters="sRGB">
<feFlood flood-opacity="0" result="BackgroundImageFix"/>
<feColorMatrix in="SourceAlpha" type="matrix" values="0 0 0 0 0 0 0 0 0 0 0 0 0 0 0 0 0 0 127 0" result="hardAlpha"/>
<feOffset dx="10" dy="4"/>
<feGaussianBlur stdDeviation="2"/>
<feComposite in2="hardAlpha" operator="out"/>
<feColorMatrix type="matrix" values="0 0 0 0 0 0 0 0 0 0 0 0 0 0 0 0 0 0 0.25 0"/>
<feBlend mode="normal" in2="BackgroundImageFix" result="effect1_dropShadow_19_6"/>
<feBlend mode="normal" in="SourceGraphic" in2="effect1_dropShadow_19_6" result="shape"/>
</filter>
</defs>
</svg>
