<svg width="68" height="69" viewBox="0 0 68 69" fill="none" xmlns="http://www.w3.org/2000/svg">
<circle cx="34" cy="34" r="33.5" fill="#FADF38"/>
<circle cx="34" cy="34" r="33.5" stroke="black"/>
<circle cx="34" cy="34" r="33.5" stroke="black" stroke-opacity="0.2"/>
<path d="M59.5 35C59.5 38.3487 58.8404 41.6646 57.5589 44.7584C56.2774 47.8522 54.3991 50.6633 52.0312 53.0312C49.6633 55.3991 46.8522 57.2774 43.7584 58.5589C40.6646 59.8404 37.3487 60.5 34 60.5C30.6513 60.5 27.3354 59.8404 24.2416 58.5589C21.1478 57.2774 18.3367 55.3991 15.9688 53.0312C13.6009 50.6633 11.7226 47.8522 10.4411 44.7584C9.15958 41.6646 8.5 38.3487 8.5 35C8.5 28.237 11.1866 21.751 15.9688 16.9688C20.751 12.1866 27.237 9.5 34 9.5C40.763 9.5 47.249 12.1866 52.0312 16.9688C56.8134 21.751 59.5 28.237 59.5 35Z" stroke="black" stroke-width="2" stroke-linecap="round" stroke-linejoin="round"/>
<path d="M25.5 29.3333C25.5 28.5819 25.7985 27.8612 26.3299 27.3299C26.8612 26.7985 27.5819 26.5 28.3333 26.5H39.6667C40.4181 26.5 41.1388 26.7985 41.6701 27.3299C42.2015 27.8612 42.5 28.5819 42.5 29.3333V40.6667C42.5 41.4181 42.2015 42.1388 41.6701 42.6701C41.1388 43.2015 40.4181 43.5 39.6667 43.5H28.3333C27.5819 43.5 26.8612 43.2015 26.3299 42.6701C25.7985 42.1388 25.5 41.4181 25.5 40.6667V29.3333Z" stroke="black" stroke-width="2" stroke-linecap="round" stroke-linejoin="round"/>
</svg>
