<svg width="420" height="700" viewBox="0 0 420 700" fill="none" xmlns="http://www.w3.org/2000/svg">
<rect x="2.5" y="2.5" width="415" height="695" rx="17.5" fill="white"/>
<rect x="227.5" y="133.5" width="177" height="57" rx="18.5" fill="#C4C4C4"/>
<rect x="227.5" y="133.5" width="177" height="57" rx="18.5" fill="black" fill-opacity="0.2"/>
<rect x="227.5" y="133.5" width="177" height="57" rx="18.5" fill="black" fill-opacity="0.2"/>
<rect x="227.5" y="133.5" width="177" height="57" rx="18.5" fill="black" fill-opacity="0.2"/>
<rect x="227.5" y="133.5" width="177" height="57" rx="18.5" stroke="#FADF38" stroke-width="3"/>
<path d="M14 152C14 140.954 22.9543 132 34 132H174C185.046 132 194 140.954 194 152V172C194 183.046 185.046 192 174 192H34C22.9543 192 14 183.046 14 172V152Z" fill="#C4C4C4"/>
<path d="M14 152C14 140.954 22.9543 132 34 132H174C185.046 132 194 140.954 194 152V172C194 183.046 185.046 192 174 192H34C22.9543 192 14 183.046 14 172V152Z" fill="black" fill-opacity="0.2"/>
<path d="M14 152C14 140.954 22.9543 132 34 132H174C185.046 132 194 140.954 194 152V172C194 183.046 185.046 192 174 192H34C22.9543 192 14 183.046 14 172V152Z" fill="black" fill-opacity="0.2"/>
<path d="M14 152C14 140.954 22.9543 132 34 132H174C185.046 132 194 140.954 194 152V172C194 183.046 185.046 192 174 192H34C22.9543 192 14 183.046 14 172V152Z" fill="black" fill-opacity="0.2"/>
<path d="M14 152C14 140.954 22.9543 132 34 132H174C185.046 132 194 140.954 194 152V172C194 183.046 185.046 192 174 192H34C22.9543 192 14 183.046 14 172V152Z" fill="#C4C4C4"/>
<path d="M14 152C14 140.954 22.9543 132 34 132H174C185.046 132 194 140.954 194 152V172C194 183.046 185.046 192 174 192H34C22.9543 192 14 183.046 14 172V152Z" fill="black" fill-opacity="0.2"/>
<path d="M14 152C14 140.954 22.9543 132 34 132H174C185.046 132 194 140.954 194 152V172C194 183.046 185.046 192 174 192H34C22.9543 192 14 183.046 14 172V152Z" fill="black" fill-opacity="0.2"/>
<path d="M14 152C14 140.954 22.9543 132 34 132H174C185.046 132 194 140.954 194 152V172C194 183.046 185.046 192 174 192H34C22.9543 192 14 183.046 14 172V152Z" fill="black" fill-opacity="0.2"/>
<path d="M34 192H174C185.046 192 194 183.046 194 172V152C194 140.954 185.046 132 174 132H34C22.9543 132 14 140.954 14 152V172C14 183.046 22.9543 192 34 192Z" stroke="#FADF38" stroke-width="3"/>
<rect x="227.5" y="218.5" width="177" height="57" rx="18.5" fill="#C4C4C4"/>
<rect x="227.5" y="218.5" width="177" height="57" rx="18.5" fill="black" fill-opacity="0.2"/>
<rect x="227.5" y="218.5" width="177" height="57" rx="18.5" fill="black" fill-opacity="0.2"/>
<rect x="227.5" y="218.5" width="177" height="57" rx="18.5" fill="black" fill-opacity="0.2"/>
<rect x="227.5" y="218.5" width="177" height="57" rx="18.5" stroke="#FADF38" stroke-width="3"/>
<path d="M14 237C14 225.954 22.9543 217 34 217H174C185.046 217 194 225.954 194 237V257C194 268.046 185.046 277 174 277H34C22.9543 277 14 268.046 14 257V237Z" fill="#C4C4C4"/>
<path d="M14 237C14 225.954 22.9543 217 34 217H174C185.046 217 194 225.954 194 237V257C194 268.046 185.046 277 174 277H34C22.9543 277 14 268.046 14 257V237Z" fill="black" fill-opacity="0.2"/>
<path d="M14 237C14 225.954 22.9543 217 34 217H174C185.046 217 194 225.954 194 237V257C194 268.046 185.046 277 174 277H34C22.9543 277 14 268.046 14 257V237Z" fill="black" fill-opacity="0.2"/>
<path d="M14 237C14 225.954 22.9543 217 34 217H174C185.046 217 194 225.954 194 237V257C194 268.046 185.046 277 174 277H34C22.9543 277 14 268.046 14 257V237Z" fill="black" fill-opacity="0.2"/>
<path d="M14 237C14 225.954 22.9543 217 34 217H174C185.046 217 194 225.954 194 237V257C194 268.046 185.046 277 174 277H34C22.9543 277 14 268.046 14 257V237Z" fill="#C4C4C4"/>
<path d="M14 237C14 225.954 22.9543 217 34 217H174C185.046 217 194 225.954 194 237V257C194 268.046 185.046 277 174 277H34C22.9543 277 14 268.046 14 257V237Z" fill="black" fill-opacity="0.2"/>
<path d="M14 237C14 225.954 22.9543 217 34 217H174C185.046 217 194 225.954 194 237V257C194 268.046 185.046 277 174 277H34C22.9543 277 14 268.046 14 257V237Z" fill="black" fill-opacity="0.2"/>
<path d="M14 237C14 225.954 22.9543 217 34 217H174C185.046 217 194 225.954 194 237V257C194 268.046 185.046 277 174 277H34C22.9543 277 14 268.046 14 257V237Z" fill="black" fill-opacity="0.2"/>
<path d="M34 277H174C185.046 277 194 268.046 194 257V237C194 225.954 185.046 217 174 217H34C22.9543 217 14 225.954 14 237V257C14 268.046 22.9543 277 34 277Z" stroke="#FADF38" stroke-width="3"/>
<path d="M29.6605 232.273H32.2727L34.4886 237.676H34.5909L36.8068 232.273H39.419V241H37.3651V235.639H37.2926L35.196 240.945H33.8835L31.7869 235.609H31.7145V241H29.6605V232.273ZM48.9719 236.636C48.9719 237.597 48.7873 238.411 48.418 239.078C48.0487 239.746 47.5487 240.253 46.918 240.599C46.2901 240.946 45.5856 241.119 44.8043 241.119C44.0202 241.119 43.3143 240.945 42.6864 240.595C42.0586 240.246 41.56 239.739 41.1907 239.074C40.8242 238.406 40.641 237.594 40.641 236.636C40.641 235.676 40.8242 234.862 41.1907 234.195C41.56 233.527 42.0586 233.02 42.6864 232.673C43.3143 232.327 44.0202 232.153 44.8043 232.153C45.5856 232.153 46.2901 232.327 46.918 232.673C47.5487 233.02 48.0487 233.527 48.418 234.195C48.7873 234.862 48.9719 235.676 48.9719 236.636ZM46.8157 236.636C46.8157 236.068 46.7347 235.588 46.5728 235.196C46.4137 234.804 46.1836 234.507 45.8825 234.305C45.5842 234.104 45.2248 234.003 44.8043 234.003C44.3867 234.003 44.0273 234.104 43.7262 234.305C43.4251 234.507 43.1935 234.804 43.0316 235.196C42.8725 235.588 42.793 236.068 42.793 236.636C42.793 237.205 42.8725 237.685 43.0316 238.077C43.1935 238.469 43.4251 238.766 43.7262 238.967C44.0273 239.169 44.3867 239.27 44.8043 239.27C45.2248 239.27 45.5842 239.169 45.8825 238.967C46.1836 238.766 46.4137 238.469 46.5728 238.077C46.7347 237.685 46.8157 237.205 46.8157 236.636ZM53.4293 241H50.2035V232.273H53.4251C54.3143 232.273 55.0799 232.447 55.7219 232.797C56.3668 233.143 56.864 233.643 57.2134 234.297C57.5629 234.947 57.7376 235.726 57.7376 236.632C57.7376 237.541 57.5629 238.322 57.2134 238.976C56.8668 239.629 56.3711 240.131 55.7262 240.48C55.0813 240.827 54.3157 241 53.4293 241ZM52.3129 239.202H53.3484C53.837 239.202 54.2504 239.119 54.5884 238.955C54.9293 238.787 55.1864 238.516 55.3597 238.141C55.5359 237.763 55.6239 237.26 55.6239 236.632C55.6239 236.004 55.5359 235.504 55.3597 235.132C55.1836 234.757 54.9237 234.487 54.5799 234.322C54.239 234.155 53.8185 234.071 53.3185 234.071H52.3129V239.202ZM58.9691 241V232.273H65.0543V233.986H61.0785V235.776H64.7433V237.493H61.0785V239.287H65.0543V241H58.9691ZM66.3754 241V232.273H68.4847V239.287H72.1154V241H66.3754ZM74.3793 240.02C74.0724 240.02 73.8097 239.912 73.5909 239.696C73.375 239.48 73.2685 239.219 73.2713 238.912C73.2685 238.611 73.375 238.354 73.5909 238.141C73.8097 237.925 74.0724 237.817 74.3793 237.817C74.669 237.817 74.9247 237.925 75.1463 238.141C75.3707 238.354 75.4844 238.611 75.4872 238.912C75.4844 239.116 75.4304 239.303 75.3253 239.47C75.223 239.638 75.0881 239.771 74.9205 239.871C74.7557 239.97 74.5753 240.02 74.3793 240.02ZM74.3793 235.784C74.0724 235.784 73.8097 235.676 73.5909 235.46C73.375 235.244 73.2685 234.983 73.2713 234.676C73.2685 234.375 73.375 234.118 73.5909 233.905C73.8097 233.689 74.0724 233.581 74.3793 233.581C74.669 233.581 74.9247 233.689 75.1463 233.905C75.3707 234.118 75.4844 234.375 75.4872 234.676C75.4844 234.881 75.4304 235.067 75.3253 235.234C75.223 235.402 75.0881 235.536 74.9205 235.635C74.7557 235.734 74.5753 235.784 74.3793 235.784Z" fill="white"/>
<path d="M244.661 157V148.273H248.266C248.919 148.273 249.483 148.391 249.957 148.626C250.435 148.859 250.803 149.195 251.061 149.632C251.32 150.067 251.449 150.582 251.449 151.179C251.449 151.784 251.317 152.298 251.053 152.722C250.788 153.142 250.413 153.463 249.928 153.685C249.442 153.903 248.866 154.013 248.202 154.013H245.922V152.351H247.81C248.128 152.351 248.393 152.31 248.607 152.227C248.822 152.142 248.986 152.014 249.097 151.844C249.207 151.67 249.263 151.449 249.263 151.179C249.263 150.909 249.207 150.686 249.097 150.51C248.986 150.331 248.822 150.197 248.607 150.109C248.391 150.018 248.125 149.973 247.81 149.973H246.77V157H244.661ZM249.574 153.011L251.747 157H249.446L247.315 153.011H249.574ZM252.606 157V148.273H258.691V149.986H254.715V151.776H258.38V153.493H254.715V155.287H258.691V157H252.606ZM260.012 157V148.273H265.969V149.986H262.121V151.776H265.59V153.493H262.121V157H260.012ZM267.032 157V148.273H273.117V149.986H269.141V151.776H272.806V153.493H269.141V155.287H273.117V157H267.032ZM274.438 157V148.273H278.043C278.696 148.273 279.26 148.391 279.735 148.626C280.212 148.859 280.58 149.195 280.838 149.632C281.097 150.067 281.226 150.582 281.226 151.179C281.226 151.784 281.094 152.298 280.83 152.722C280.566 153.142 280.191 153.463 279.705 153.685C279.219 153.903 278.644 154.013 277.979 154.013H275.699V152.351H277.587C277.905 152.351 278.171 152.31 278.384 152.227C278.6 152.142 278.763 152.014 278.874 151.844C278.985 151.67 279.04 151.449 279.04 151.179C279.04 150.909 278.985 150.686 278.874 150.51C278.763 150.331 278.6 150.197 278.384 150.109C278.168 150.018 277.902 149.973 277.587 149.973H276.547V157H274.438ZM279.351 153.011L281.525 157H279.223L277.093 153.011H279.351ZM282.383 157V148.273H288.468V149.986H284.493V151.776H288.157V153.493H284.493V155.287H288.468V157H282.383ZM297.217 148.273V157H295.427L291.954 151.963H291.899V157H289.789V148.273H291.605L295.039 153.301H295.112V148.273H297.217ZM306.465 151.435H304.335C304.306 151.216 304.248 151.018 304.16 150.842C304.072 150.666 303.955 150.516 303.81 150.391C303.665 150.266 303.494 150.17 303.295 150.105C303.099 150.037 302.881 150.003 302.643 150.003C302.219 150.003 301.854 150.107 301.548 150.314C301.244 150.521 301.009 150.821 300.844 151.213C300.683 151.605 300.602 152.08 300.602 152.636C300.602 153.216 300.684 153.702 300.849 154.094C301.016 154.483 301.251 154.777 301.552 154.976C301.856 155.172 302.215 155.27 302.63 155.27C302.863 155.27 303.075 155.24 303.265 155.18C303.458 155.121 303.627 155.034 303.772 154.92C303.92 154.804 304.04 154.663 304.134 154.499C304.231 154.331 304.298 154.142 304.335 153.932L306.465 153.945C306.428 154.331 306.316 154.712 306.129 155.087C305.944 155.462 305.69 155.804 305.366 156.114C305.042 156.42 304.647 156.665 304.181 156.847C303.718 157.028 303.187 157.119 302.587 157.119C301.798 157.119 301.09 156.946 300.465 156.599C299.843 156.25 299.352 155.741 298.991 155.074C298.63 154.406 298.45 153.594 298.45 152.636C298.45 151.676 298.633 150.862 298.999 150.195C299.366 149.527 299.862 149.02 300.487 148.673C301.112 148.327 301.812 148.153 302.587 148.153C303.116 148.153 303.604 148.227 304.053 148.375C304.502 148.52 304.897 148.733 305.238 149.014C305.579 149.293 305.856 149.635 306.069 150.041C306.282 150.447 306.414 150.912 306.465 151.435ZM307.672 157V148.273H313.757V149.986H309.782V151.776H313.446V153.493H309.782V155.287H313.757V157H307.672ZM316.25 156.02C315.944 156.02 315.681 155.912 315.462 155.696C315.246 155.48 315.14 155.219 315.142 154.912C315.14 154.611 315.246 154.354 315.462 154.141C315.681 153.925 315.944 153.817 316.25 153.817C316.54 153.817 316.796 153.925 317.017 154.141C317.242 154.354 317.355 154.611 317.358 154.912C317.355 155.116 317.301 155.303 317.196 155.47C317.094 155.638 316.959 155.771 316.792 155.871C316.627 155.97 316.446 156.02 316.25 156.02ZM316.25 151.784C315.944 151.784 315.681 151.676 315.462 151.46C315.246 151.244 315.14 150.983 315.142 150.676C315.14 150.375 315.246 150.118 315.462 149.905C315.681 149.689 315.944 149.581 316.25 149.581C316.54 149.581 316.796 149.689 317.017 149.905C317.242 150.118 317.355 150.375 317.358 150.676C317.355 150.881 317.301 151.067 317.196 151.234C317.094 151.402 316.959 151.536 316.792 151.635C316.627 151.734 316.446 151.784 316.25 151.784Z" fill="white"/>
<circle cx="361" cy="643" r="33.5" fill="#FADF38"/>
<circle cx="361" cy="643" r="33.5" stroke="black"/>
<circle cx="361" cy="643" r="33.5" stroke="black" stroke-opacity="0.2"/>
<circle cx="207" cy="643" r="33.5" fill="#FADF38"/>
<circle cx="207" cy="643" r="33.5" stroke="black"/>
<circle cx="207" cy="643" r="33.5" stroke="black" stroke-opacity="0.2"/>
<circle cx="130" cy="643" r="33.5" fill="#FADF38"/>
<circle cx="130" cy="643" r="33.5" stroke="black"/>
<circle cx="130" cy="643" r="33.5" stroke="black" stroke-opacity="0.2"/>
<circle cx="53" cy="643" r="33.5" fill="#FADF38"/>
<circle cx="53" cy="643" r="33.5" stroke="black"/>
<circle cx="53" cy="643" r="33.5" stroke="black" stroke-opacity="0.2"/>
<path d="M386.442 55.1925C384.397 56.0152 382.154 56.2186 379.993 55.7772C377.833 55.3357 375.85 54.2691 374.29 52.7098C372.731 51.1505 371.664 49.1673 371.223 47.0067C370.781 44.8461 370.985 42.6035 371.807 40.5575C369.385 41.5334 367.377 43.3217 366.128 45.6159C364.879 47.9101 364.467 50.5672 364.963 53.1317C365.459 55.6963 366.831 58.0086 368.845 59.6722C370.858 61.3358 373.388 62.2472 376 62.25C378.246 62.2501 380.441 61.578 382.302 60.3202C384.163 59.0625 385.605 57.2767 386.442 55.1925Z" stroke="white" stroke-width="2" stroke-linecap="round" stroke-linejoin="round"/>
<circle cx="284" cy="643" r="33.5" fill="#FADF38"/>
<circle cx="284" cy="643" r="33.5" stroke="black"/>
<circle cx="284" cy="643" r="33.5" stroke="black" stroke-opacity="0.2"/>
<rect x="17" y="100" width="23" height="16" rx="8" fill="#C4C4C4"/>
<rect x="17" y="100" width="23" height="16" rx="8" fill="black" fill-opacity="0.2"/>
<rect x="17" y="100" width="23" height="16" rx="8" fill="black" fill-opacity="0.2"/>
<rect x="17" y="100" width="23" height="16" rx="8" stroke="#FADF38" stroke-width="2"/>
<rect x="17" y="100" width="23" height="16" rx="8" stroke="black" stroke-opacity="0.2" stroke-width="2"/>
<rect x="15" y="572" width="23" height="16" rx="8" fill="#C4C4C4"/>
<rect x="15" y="572" width="23" height="16" rx="8" fill="black" fill-opacity="0.2"/>
<rect x="15" y="572" width="23" height="16" rx="8" fill="black" fill-opacity="0.2"/>
<rect x="15" y="572" width="23" height="16" rx="8" stroke="black" stroke-width="2"/>
<rect x="15" y="572" width="23" height="16" rx="8" stroke="#FADF38" stroke-width="2"/>
<g filter="url(#filter0_d_2_24)">
<path d="M114.57 55.9091C114.57 57.8681 114.203 59.546 113.469 60.9428C112.741 62.3337 111.747 63.399 110.486 64.1388C109.232 64.8787 107.808 65.2486 106.216 65.2486C104.624 65.2486 103.198 64.8787 101.937 64.1388C100.682 63.3931 99.6878 62.3248 98.9539 60.9339C98.2259 59.5372 97.8619 57.8622 97.8619 55.9091C97.8619 53.95 98.2259 52.2751 98.9539 50.8842C99.6878 49.4875 100.682 48.4192 101.937 47.6793C103.198 46.9395 104.624 46.5696 106.216 46.5696C107.808 46.5696 109.232 46.9395 110.486 47.6793C111.747 48.4192 112.741 49.4875 113.469 50.8842C114.203 52.2751 114.57 53.95 114.57 55.9091ZM111.259 55.9091C111.259 54.5301 111.043 53.3671 110.611 52.4201C110.184 51.4672 109.593 50.7481 108.835 50.2628C108.077 49.7715 107.204 49.5259 106.216 49.5259C105.228 49.5259 104.355 49.7715 103.597 50.2628C102.839 50.7481 102.245 51.4672 101.813 52.4201C101.386 53.3671 101.173 54.5301 101.173 55.9091C101.173 57.2881 101.386 58.4541 101.813 59.407C102.245 60.3539 102.839 61.073 103.597 61.5643C104.355 62.0496 105.228 62.2923 106.216 62.2923C107.204 62.2923 108.077 62.0496 108.835 61.5643C109.593 61.073 110.184 60.3539 110.611 59.407C111.043 58.4541 111.259 57.2881 111.259 55.9091ZM117.684 65V46.8182H124.644C125.958 46.8182 127.05 47.0253 127.92 47.4396C128.796 47.848 129.45 48.4073 129.882 49.1175C130.32 49.8278 130.539 50.6327 130.539 51.5323C130.539 52.2721 130.397 52.9054 130.113 53.4322C129.829 53.953 129.447 54.3762 128.968 54.7017C128.488 55.0272 127.953 55.261 127.361 55.4031V55.5806C128.006 55.6161 128.624 55.8144 129.216 56.1754C129.814 56.5305 130.302 57.0336 130.681 57.6847C131.06 58.3357 131.249 59.1229 131.249 60.0462C131.249 60.9872 131.021 61.8336 130.566 62.5852C130.11 63.331 129.423 63.9199 128.506 64.3519C127.589 64.784 126.435 65 125.044 65H117.684ZM120.978 62.2479H124.52C125.715 62.2479 126.577 62.02 127.103 61.5643C127.636 61.1026 127.902 60.5108 127.902 59.7887C127.902 59.2501 127.769 58.7648 127.503 58.3327C127.237 57.8948 126.858 57.5515 126.366 57.3029C125.875 57.0484 125.289 56.9212 124.609 56.9212H120.978V62.2479ZM120.978 54.5508H124.236C124.804 54.5508 125.316 54.4472 125.772 54.2401C126.227 54.027 126.585 53.7281 126.846 53.3434C127.112 52.9528 127.245 52.4911 127.245 51.9585C127.245 51.2541 126.997 50.6741 126.5 50.2184C126.008 49.7627 125.277 49.5348 124.307 49.5348H120.978V54.5508ZM141.288 46.8182H144.555V59.6023C144.549 60.7741 144.3 61.7833 143.809 62.6296C143.318 63.4701 142.631 64.1181 141.75 64.5739C140.874 65.0237 139.853 65.2486 138.687 65.2486C137.621 65.2486 136.663 65.0592 135.81 64.6804C134.964 64.2957 134.292 63.7275 133.795 62.9759C133.298 62.2242 133.049 61.2891 133.049 60.1705H136.325C136.331 60.6617 136.438 61.0849 136.645 61.44C136.858 61.7951 137.151 62.0674 137.524 62.2567C137.897 62.4461 138.326 62.5408 138.811 62.5408C139.338 62.5408 139.785 62.4313 140.152 62.2124C140.518 61.9875 140.797 61.656 140.986 61.218C141.181 60.7801 141.282 60.2415 141.288 59.6023V46.8182ZM148.128 65V46.8182H159.954V49.5792H151.422V54.5153H159.341V57.2763H151.422V62.239H160.025V65H148.128ZM178.877 52.9528H175.556C175.462 52.4083 175.287 51.9259 175.033 51.5057C174.778 51.0795 174.461 50.7185 174.083 50.4226C173.704 50.1267 173.272 49.9047 172.786 49.7567C172.307 49.6029 171.789 49.5259 171.233 49.5259C170.244 49.5259 169.369 49.7745 168.605 50.2717C167.842 50.7629 167.244 51.485 166.812 52.4379C166.38 53.3848 166.164 54.5419 166.164 55.9091C166.164 57.3 166.38 58.4718 166.812 59.4247C167.25 60.3717 167.847 61.0878 168.605 61.5732C169.369 62.0526 170.242 62.2923 171.224 62.2923C171.768 62.2923 172.277 62.2212 172.751 62.0792C173.23 61.9312 173.659 61.7152 174.038 61.4311C174.423 61.147 174.746 60.7978 175.006 60.3835C175.272 59.9692 175.456 59.4957 175.556 58.9631L178.877 58.9808C178.752 59.8449 178.483 60.6558 178.069 61.4134C177.66 62.1709 177.125 62.8397 176.462 63.4197C175.799 63.9938 175.024 64.4437 174.136 64.7692C173.248 65.0888 172.263 65.2486 171.18 65.2486C169.582 65.2486 168.155 64.8787 166.9 64.1388C165.646 63.399 164.657 62.3307 163.935 60.9339C163.213 59.5372 162.852 57.8622 162.852 55.9091C162.852 53.95 163.216 52.2751 163.944 50.8842C164.672 49.4875 165.664 48.4192 166.918 47.6793C168.173 46.9395 169.593 46.5696 171.18 46.5696C172.192 46.5696 173.133 46.7116 174.003 46.9957C174.873 47.2798 175.648 47.6971 176.329 48.2475C177.009 48.792 177.569 49.4608 178.007 50.2539C178.451 51.0411 178.741 51.9407 178.877 52.9528ZM181.094 49.5792V46.8182H195.6V49.5792H189.981V65H186.714V49.5792H181.094Z" fill="#111010"/>
<path d="M207.031 46.8182L211.762 61.1293H211.949L216.672 46.8182H220.294L213.884 65H209.818L203.417 46.8182H207.031ZM222.689 65V46.8182H234.514V49.5792H225.983V54.5153H233.902V57.2763H225.983V62.239H234.585V65H222.689ZM237.874 65V46.8182H241.168V54.5153H249.593V46.8182H252.896V65H249.593V57.2763H241.168V65H237.874ZM259.772 46.8182V65H256.478V46.8182H259.772ZM278.901 52.9528H275.581C275.486 52.4083 275.311 51.9259 275.057 51.5057C274.802 51.0795 274.486 50.7185 274.107 50.4226C273.728 50.1267 273.296 49.9047 272.811 49.7567C272.331 49.6029 271.814 49.5259 271.257 49.5259C270.269 49.5259 269.393 49.7745 268.629 50.2717C267.866 50.7629 267.268 51.485 266.836 52.4379C266.404 53.3848 266.188 54.5419 266.188 55.9091C266.188 57.3 266.404 58.4718 266.836 59.4247C267.274 60.3717 267.872 61.0878 268.629 61.5732C269.393 62.0526 270.266 62.2923 271.248 62.2923C271.793 62.2923 272.302 62.2212 272.775 62.0792C273.255 61.9312 273.684 61.7152 274.063 61.4311C274.447 61.147 274.77 60.7978 275.03 60.3835C275.297 59.9692 275.48 59.4957 275.581 58.9631L278.901 58.9808C278.777 59.8449 278.508 60.6558 278.093 61.4134C277.685 62.1709 277.149 62.8397 276.486 63.4197C275.823 63.9938 275.048 64.4437 274.16 64.7692C273.273 65.0888 272.287 65.2486 271.204 65.2486C269.606 65.2486 268.18 64.8787 266.925 64.1388C265.67 63.399 264.682 62.3307 263.96 60.9339C263.238 59.5372 262.877 57.8622 262.877 55.9091C262.877 53.95 263.241 52.2751 263.969 50.8842C264.697 49.4875 265.688 48.4192 266.943 47.6793C268.197 46.9395 269.618 46.5696 271.204 46.5696C272.216 46.5696 273.157 46.7116 274.027 46.9957C274.897 47.2798 275.673 47.6971 276.353 48.2475C277.034 48.792 277.593 49.4608 278.031 50.2539C278.475 51.0411 278.765 51.9407 278.901 52.9528ZM281.917 65V46.8182H285.211V62.239H293.219V65H281.917ZM296.078 65V46.8182H307.903V49.5792H299.371V54.5153H307.29V57.2763H299.371V62.239H307.974V65H296.078Z" fill="#FADF38"/>
</g>
<path d="M47.2221 577.273H49.1568L51.7477 583.597H51.85L54.4409 577.273H56.3755V586H54.8585V580.004H54.7775L52.3656 585.974H51.2321L48.8201 579.991H48.7392V586H47.2221V577.273ZM58.0971 586V577.273H63.7733V578.598H59.6781V580.967H63.4792V582.293H59.6781V584.675H63.8074V586H58.0971ZM65.0027 578.598V577.273H71.9657V578.598H69.2683V586H67.7001V578.598H65.0027ZM73.3081 586V577.273H74.889V580.967H78.9331V577.273H80.5183V586H78.9331V582.293H74.889V586H73.3081ZM90.036 581.636C90.036 582.577 89.8599 583.382 89.5076 584.053C89.1582 584.72 88.6809 585.232 88.0758 585.587C87.4735 585.942 86.7903 586.119 86.0261 586.119C85.2619 586.119 84.5772 585.942 83.9721 585.587C83.3699 585.229 82.8926 584.716 82.5403 584.048C82.1909 583.378 82.0162 582.574 82.0162 581.636C82.0162 580.696 82.1909 579.892 82.5403 579.224C82.8926 578.554 83.3699 578.041 83.9721 577.686C84.5772 577.331 85.2619 577.153 86.0261 577.153C86.7903 577.153 87.4735 577.331 88.0758 577.686C88.6809 578.041 89.1582 578.554 89.5076 579.224C89.8599 579.892 90.036 580.696 90.036 581.636ZM88.4466 581.636C88.4466 580.974 88.3429 580.416 88.1355 579.962C87.9309 579.504 87.6468 579.159 87.2832 578.926C86.9196 578.69 86.5005 578.572 86.0261 578.572C85.5517 578.572 85.1326 578.69 84.769 578.926C84.4054 579.159 84.1199 579.504 83.9125 579.962C83.7079 580.416 83.6056 580.974 83.6056 581.636C83.6056 582.298 83.7079 582.858 83.9125 583.315C84.1199 583.77 84.4054 584.115 84.769 584.351C85.1326 584.584 85.5517 584.7 86.0261 584.7C86.5005 584.7 86.9196 584.584 87.2832 584.351C87.6468 584.115 87.9309 583.77 88.1355 583.315C88.3429 582.858 88.4466 582.298 88.4466 581.636ZM94.4881 586H91.5307V577.273H94.5478C95.4142 577.273 96.1586 577.447 96.7807 577.797C97.4057 578.143 97.8858 578.642 98.2211 579.293C98.5563 579.943 98.7239 580.722 98.7239 581.628C98.7239 582.537 98.5549 583.318 98.2168 583.972C97.8816 584.625 97.3972 585.126 96.7637 585.476C96.133 585.825 95.3745 586 94.4881 586ZM93.1117 584.632H94.4114C95.0194 584.632 95.5265 584.521 95.9327 584.3C96.339 584.075 96.6444 583.741 96.8489 583.298C97.0534 582.852 97.1557 582.295 97.1557 581.628C97.1557 580.96 97.0534 580.406 96.8489 579.966C96.6444 579.523 96.3418 579.192 95.9412 578.973C95.5435 578.751 95.0492 578.641 94.4583 578.641H93.1117V584.632ZM104.969 579.672C104.929 579.3 104.762 579.01 104.466 578.803C104.173 578.595 103.793 578.491 103.324 578.491C102.994 578.491 102.712 578.541 102.476 578.641C102.24 578.74 102.06 578.875 101.935 579.045C101.81 579.216 101.746 579.411 101.743 579.629C101.743 579.811 101.784 579.969 101.867 580.102C101.952 580.236 102.067 580.349 102.212 580.443C102.357 580.534 102.517 580.611 102.693 580.673C102.869 580.736 103.047 580.788 103.226 580.831L104.044 581.036C104.374 581.112 104.691 581.216 104.994 581.347C105.301 581.477 105.575 581.642 105.817 581.841C106.061 582.04 106.254 582.28 106.396 582.561C106.539 582.842 106.61 583.172 106.61 583.55C106.61 584.061 106.479 584.511 106.218 584.901C105.956 585.287 105.578 585.589 105.084 585.808C104.593 586.024 103.997 586.132 103.298 586.132C102.619 586.132 102.03 586.027 101.53 585.817C101.033 585.607 100.644 585.3 100.362 584.896C100.084 584.493 99.9334 584.001 99.9107 583.422H101.466C101.489 583.726 101.583 583.979 101.747 584.18C101.912 584.382 102.127 584.533 102.391 584.632C102.658 584.732 102.956 584.781 103.286 584.781C103.629 584.781 103.931 584.73 104.189 584.628C104.45 584.523 104.655 584.378 104.803 584.193C104.95 584.006 105.026 583.787 105.029 583.537C105.026 583.31 104.959 583.122 104.828 582.974C104.698 582.824 104.514 582.699 104.279 582.599C104.046 582.497 103.773 582.406 103.46 582.327L102.468 582.071C101.749 581.886 101.181 581.607 100.763 581.232C100.348 580.854 100.141 580.352 100.141 579.727C100.141 579.213 100.28 578.763 100.558 578.376C100.84 577.99 101.222 577.69 101.705 577.477C102.188 577.261 102.735 577.153 103.345 577.153C103.965 577.153 104.507 577.261 104.973 577.477C105.442 577.69 105.81 577.987 106.077 578.368C106.344 578.746 106.482 579.18 106.49 579.672H104.969ZM108.901 584.952C108.643 584.952 108.421 584.861 108.236 584.679C108.052 584.494 107.961 584.273 107.964 584.014C107.961 583.759 108.052 583.54 108.236 583.358C108.421 583.176 108.643 583.085 108.901 583.085C109.151 583.085 109.368 583.176 109.553 583.358C109.741 583.54 109.836 583.759 109.839 584.014C109.836 584.187 109.79 584.345 109.702 584.487C109.617 584.629 109.503 584.743 109.361 584.828C109.222 584.911 109.069 584.952 108.901 584.952ZM108.901 580.626C108.643 580.626 108.421 580.536 108.236 580.354C108.052 580.169 107.961 579.947 107.964 579.689C107.961 579.433 108.052 579.214 108.236 579.033C108.421 578.848 108.643 578.756 108.901 578.756C109.151 578.756 109.368 578.848 109.553 579.033C109.741 579.214 109.836 579.433 109.839 579.689C109.836 579.859 109.79 580.016 109.702 580.158C109.617 580.3 109.503 580.413 109.361 580.499C109.222 580.584 109.069 580.626 108.901 580.626Z" fill="black"/>
<path d="M48.6104 111H46.9229L49.9954 102.273H51.9471L55.0238 111H53.3363L51.0053 104.062H50.9371L48.6104 111ZM48.6658 107.578H53.2681V108.848H48.6658V107.578ZM54.7351 103.598V102.273H61.6982V103.598H59.0007V111H57.4325V103.598H54.7351ZM62.657 103.598V102.273H69.62V103.598H66.9226V111H65.3544V103.598H62.657ZM70.9624 111V102.273H74.2351C74.9055 102.273 75.468 102.389 75.9226 102.622C76.38 102.855 76.7251 103.182 76.9581 103.602C77.1939 104.02 77.3118 104.507 77.3118 105.064C77.3118 105.624 77.1925 106.109 76.9538 106.521C76.718 106.93 76.37 107.247 75.9098 107.472C75.4496 107.693 74.8842 107.804 74.2138 107.804H71.8828V106.491H74.0007C74.3928 106.491 74.7138 106.437 74.9638 106.33C75.2138 106.219 75.3984 106.058 75.5178 105.848C75.6399 105.635 75.701 105.374 75.701 105.064C75.701 104.754 75.6399 104.49 75.5178 104.271C75.3956 104.05 75.2095 103.882 74.9595 103.768C74.7095 103.652 74.3871 103.594 73.9922 103.594H72.5433V111H70.9624ZM75.4709 107.045L77.6314 111H75.8672L73.745 107.045H75.4709ZM80.348 102.273V111H78.767V102.273H80.348ZM82.06 111V102.273H85.4009C86.0316 102.273 86.5558 102.372 86.9734 102.571C87.3938 102.767 87.7077 103.036 87.9151 103.376C88.1254 103.717 88.2305 104.104 88.2305 104.536C88.2305 104.891 88.1623 105.195 88.0259 105.447C87.8896 105.697 87.7063 105.901 87.4762 106.057C87.2461 106.213 86.989 106.325 86.7049 106.393V106.479C87.0146 106.496 87.3114 106.591 87.5955 106.764C87.8825 106.935 88.1168 107.176 88.2987 107.489C88.4805 107.801 88.5714 108.179 88.5714 108.622C88.5714 109.074 88.462 109.48 88.2433 109.841C88.0245 110.199 87.695 110.482 87.2546 110.689C86.8143 110.896 86.2603 111 85.5927 111H82.06ZM83.641 109.679H85.3413C85.9151 109.679 86.3285 109.57 86.5813 109.351C86.837 109.129 86.9648 108.845 86.9648 108.499C86.9648 108.24 86.9009 108.007 86.7731 107.8C86.6452 107.589 86.4634 107.425 86.2276 107.305C85.9918 107.183 85.7106 107.122 85.3839 107.122H83.641V109.679ZM83.641 105.984H85.2049C85.4776 105.984 85.7234 105.935 85.9421 105.835C86.1609 105.733 86.3327 105.589 86.4577 105.405C86.5856 105.217 86.6495 104.996 86.6495 104.74C86.6495 104.402 86.5302 104.124 86.2915 103.905C86.0558 103.686 85.7049 103.577 85.239 103.577H83.641V105.984ZM95.4482 102.273H97.0291V107.974C97.0291 108.599 96.8814 109.149 96.5859 109.624C96.2933 110.098 95.8814 110.469 95.3501 110.736C94.8189 111 94.1982 111.132 93.4879 111.132C92.7749 111.132 92.1527 111 91.6214 110.736C91.0902 110.469 90.6783 110.098 90.3857 109.624C90.093 109.149 89.9467 108.599 89.9467 107.974V102.273H91.5277V107.842C91.5277 108.206 91.6072 108.53 91.7663 108.814C91.9283 109.098 92.1555 109.321 92.4482 109.483C92.7408 109.642 93.0874 109.722 93.4879 109.722C93.8885 109.722 94.2351 109.642 94.5277 109.483C94.8232 109.321 95.0504 109.098 95.2095 108.814C95.3686 108.53 95.4482 108.206 95.4482 107.842V102.273ZM98.364 103.598V102.273H105.327V103.598H102.63V111H101.061V103.598H98.364ZM106.669 111V102.273H112.346V103.598H108.25V105.967H112.051V107.293H108.25V109.675H112.38V111H106.669ZM118.701 104.672C118.662 104.3 118.494 104.01 118.199 103.803C117.906 103.595 117.525 103.491 117.056 103.491C116.727 103.491 116.444 103.541 116.208 103.641C115.973 103.74 115.792 103.875 115.667 104.045C115.542 104.216 115.478 104.411 115.475 104.629C115.475 104.811 115.517 104.969 115.599 105.102C115.684 105.236 115.799 105.349 115.944 105.443C116.089 105.534 116.25 105.611 116.426 105.673C116.602 105.736 116.779 105.788 116.958 105.831L117.777 106.036C118.106 106.112 118.423 106.216 118.727 106.347C119.034 106.477 119.308 106.642 119.549 106.841C119.794 107.04 119.987 107.28 120.129 107.561C120.271 107.842 120.342 108.172 120.342 108.55C120.342 109.061 120.211 109.511 119.95 109.901C119.689 110.287 119.311 110.589 118.816 110.808C118.325 111.024 117.73 111.132 117.031 111.132C116.352 111.132 115.762 111.027 115.262 110.817C114.765 110.607 114.376 110.3 114.095 109.896C113.816 109.493 113.666 109.001 113.643 108.422H115.199C115.221 108.726 115.315 108.979 115.48 109.18C115.645 109.382 115.859 109.533 116.123 109.632C116.39 109.732 116.689 109.781 117.018 109.781C117.362 109.781 117.663 109.73 117.922 109.628C118.183 109.523 118.387 109.378 118.535 109.193C118.683 109.006 118.758 108.787 118.761 108.537C118.758 108.31 118.691 108.122 118.561 107.974C118.43 107.824 118.247 107.699 118.011 107.599C117.778 107.497 117.505 107.406 117.193 107.327L116.2 107.071C115.481 106.886 114.913 106.607 114.495 106.232C114.081 105.854 113.873 105.352 113.873 104.727C113.873 104.213 114.012 103.763 114.291 103.376C114.572 102.99 114.954 102.69 115.437 102.477C115.92 102.261 116.467 102.153 117.078 102.153C117.697 102.153 118.24 102.261 118.706 102.477C119.174 102.69 119.542 102.987 119.809 103.368C120.076 103.746 120.214 104.18 120.223 104.672H118.701ZM122.634 109.952C122.375 109.952 122.153 109.861 121.969 109.679C121.784 109.494 121.693 109.273 121.696 109.014C121.693 108.759 121.784 108.54 121.969 108.358C122.153 108.176 122.375 108.085 122.634 108.085C122.884 108.085 123.101 108.176 123.286 108.358C123.473 108.54 123.568 108.759 123.571 109.014C123.568 109.187 123.523 109.345 123.435 109.487C123.349 109.629 123.236 109.743 123.094 109.828C122.955 109.911 122.801 109.952 122.634 109.952ZM122.634 105.626C122.375 105.626 122.153 105.536 121.969 105.354C121.784 105.169 121.693 104.947 121.696 104.689C121.693 104.433 121.784 104.214 121.969 104.033C122.153 103.848 122.375 103.756 122.634 103.756C122.884 103.756 123.101 103.848 123.286 104.033C123.473 104.214 123.568 104.433 123.571 104.689C123.568 104.859 123.523 105.016 123.435 105.158C123.349 105.3 123.236 105.413 123.094 105.499C122.955 105.584 122.801 105.626 122.634 105.626Z" fill="black"/>
<path d="M27.6605 157V148.273H31.2997C31.9531 148.273 32.5 148.365 32.9403 148.55C33.3835 148.734 33.7159 148.993 33.9375 149.325C34.1619 149.658 34.2741 150.043 34.2741 150.48C34.2741 150.812 34.2045 151.109 34.0653 151.371C33.9261 151.629 33.7344 151.844 33.4901 152.014C33.2457 152.185 32.9631 152.304 32.642 152.372V152.457C32.9943 152.474 33.3196 152.57 33.6179 152.743C33.919 152.916 34.1605 153.158 34.3423 153.467C34.5241 153.774 34.6151 154.138 34.6151 154.558C34.6151 155.027 34.4957 155.446 34.2571 155.815C34.0185 156.182 33.6733 156.472 33.2216 156.685C32.7699 156.895 32.2216 157 31.5767 157H27.6605ZM29.7699 155.3H31.0739C31.5313 155.3 31.8679 155.213 32.0838 155.04C32.3026 154.866 32.4119 154.625 32.4119 154.315C32.4119 154.091 32.3594 153.898 32.2543 153.736C32.1491 153.571 32 153.445 31.8068 153.357C31.6136 153.266 31.3821 153.22 31.1122 153.22H29.7699V155.3ZM29.7699 151.861H30.9375C31.1676 151.861 31.3722 151.822 31.5511 151.746C31.7301 151.669 31.8693 151.558 31.9688 151.413C32.071 151.268 32.1222 151.094 32.1222 150.889C32.1222 150.597 32.0185 150.366 31.8111 150.199C31.6037 150.031 31.3239 149.947 30.9716 149.947H29.7699V151.861ZM35.6293 157V148.273H39.2344C39.8878 148.273 40.4517 148.391 40.9261 148.626C41.4034 148.859 41.7713 149.195 42.0298 149.632C42.2884 150.067 42.4176 150.582 42.4176 151.179C42.4176 151.784 42.2855 152.298 42.0213 152.722C41.7571 153.142 41.3821 153.463 40.8963 153.685C40.4105 153.903 39.8352 154.013 39.1705 154.013H36.8906V152.351H38.7784C39.0966 152.351 39.3622 152.31 39.5753 152.227C39.7912 152.142 39.9545 152.014 40.0653 151.844C40.1761 151.67 40.2315 151.449 40.2315 151.179C40.2315 150.909 40.1761 150.686 40.0653 150.51C39.9545 150.331 39.7912 150.197 39.5753 150.109C39.3594 150.018 39.0938 149.973 38.7784 149.973H37.7386V157H35.6293ZM40.5426 153.011L42.7159 157H40.4148L38.2841 153.011H40.5426ZM45.4624 157H43.1953L46.1399 148.273H48.9482L51.8928 157H49.6257L47.576 150.472H47.5078L45.4624 157ZM45.1598 153.565H49.8984V155.168H45.1598V153.565ZM60.2599 148.273V157H58.4702L54.9972 151.963H54.9418V157H52.8324V148.273H54.6477L58.0824 153.301H58.1548V148.273H60.2599ZM64.8121 157H61.5863V148.273H64.8079C65.6971 148.273 66.4627 148.447 67.1048 148.797C67.7496 149.143 68.2468 149.643 68.5962 150.297C68.9457 150.947 69.1204 151.726 69.1204 152.632C69.1204 153.541 68.9457 154.322 68.5962 154.976C68.2496 155.629 67.7539 156.131 67.109 156.48C66.4641 156.827 65.6985 157 64.8121 157ZM63.6957 155.202H64.7312C65.2198 155.202 65.6332 155.119 65.9712 154.955C66.3121 154.787 66.5692 154.516 66.7425 154.141C66.9187 153.763 67.0067 153.26 67.0067 152.632C67.0067 152.004 66.9187 151.504 66.7425 151.132C66.5664 150.757 66.3065 150.487 65.9627 150.322C65.6218 150.155 65.2013 150.071 64.7013 150.071H63.6957V155.202ZM71.5238 156.02C71.217 156.02 70.9542 155.912 70.7354 155.696C70.5195 155.48 70.413 155.219 70.4158 154.912C70.413 154.611 70.5195 154.354 70.7354 154.141C70.9542 153.925 71.217 153.817 71.5238 153.817C71.8136 153.817 72.0692 153.925 72.2908 154.141C72.5153 154.354 72.6289 154.611 72.6317 154.912C72.6289 155.116 72.5749 155.303 72.4698 155.47C72.3675 155.638 72.2326 155.771 72.065 155.871C71.9002 155.97 71.7198 156.02 71.5238 156.02ZM71.5238 151.784C71.217 151.784 70.9542 151.676 70.7354 151.46C70.5195 151.244 70.413 150.983 70.4158 150.676C70.413 150.375 70.5195 150.118 70.7354 149.905C70.9542 149.689 71.217 149.581 71.5238 149.581C71.8136 149.581 72.0692 149.689 72.2908 149.905C72.5153 150.118 72.6289 150.375 72.6317 150.676C72.6289 150.881 72.5749 151.067 72.4698 151.234C72.3675 151.402 72.2326 151.536 72.065 151.635C71.9002 151.734 71.7198 151.784 71.5238 151.784Z" fill="white"/>
<path d="M251.582 235.435H249.452C249.423 235.216 249.365 235.018 249.277 234.842C249.189 234.666 249.072 234.516 248.928 234.391C248.783 234.266 248.611 234.17 248.412 234.105C248.216 234.037 247.999 234.003 247.76 234.003C247.337 234.003 246.972 234.107 246.665 234.314C246.361 234.521 246.126 234.821 245.962 235.213C245.8 235.605 245.719 236.08 245.719 236.636C245.719 237.216 245.801 237.702 245.966 238.094C246.134 238.483 246.368 238.777 246.669 238.976C246.973 239.172 247.332 239.27 247.747 239.27C247.98 239.27 248.192 239.24 248.382 239.18C248.575 239.121 248.744 239.034 248.889 238.92C249.037 238.804 249.158 238.663 249.251 238.499C249.348 238.331 249.415 238.142 249.452 237.932L251.582 237.945C251.545 238.331 251.433 238.712 251.246 239.087C251.061 239.462 250.807 239.804 250.483 240.114C250.159 240.42 249.764 240.665 249.298 240.847C248.835 241.028 248.304 241.119 247.705 241.119C246.915 241.119 246.207 240.946 245.582 240.599C244.96 240.25 244.469 239.741 244.108 239.074C243.747 238.406 243.567 237.594 243.567 236.636C243.567 235.676 243.75 234.862 244.116 234.195C244.483 233.527 244.979 233.02 245.604 232.673C246.229 232.327 246.929 232.153 247.705 232.153C248.233 232.153 248.722 232.227 249.17 232.375C249.619 232.52 250.014 232.733 250.355 233.014C250.696 233.293 250.973 233.635 251.186 234.041C251.399 234.447 251.531 234.912 251.582 235.435ZM261.027 236.636C261.027 237.597 260.842 238.411 260.473 239.078C260.103 239.746 259.603 240.253 258.973 240.599C258.345 240.946 257.64 241.119 256.859 241.119C256.075 241.119 255.369 240.945 254.741 240.595C254.113 240.246 253.615 239.739 253.245 239.074C252.879 238.406 252.696 237.594 252.696 236.636C252.696 235.676 252.879 234.862 253.245 234.195C253.615 233.527 254.113 233.02 254.741 232.673C255.369 232.327 256.075 232.153 256.859 232.153C257.64 232.153 258.345 232.327 258.973 232.673C259.603 233.02 260.103 233.527 260.473 234.195C260.842 234.862 261.027 235.676 261.027 236.636ZM258.87 236.636C258.87 236.068 258.789 235.588 258.627 235.196C258.468 234.804 258.238 234.507 257.937 234.305C257.639 234.104 257.279 234.003 256.859 234.003C256.441 234.003 256.082 234.104 255.781 234.305C255.48 234.507 255.248 234.804 255.086 235.196C254.927 235.588 254.848 236.068 254.848 236.636C254.848 237.205 254.927 237.685 255.086 238.077C255.248 238.469 255.48 238.766 255.781 238.967C256.082 239.169 256.441 239.27 256.859 239.27C257.279 239.27 257.639 239.169 257.937 238.967C258.238 238.766 258.468 238.469 258.627 238.077C258.789 237.685 258.87 237.205 258.87 236.636ZM262.258 241V232.273H264.368V239.287H267.998V241H262.258ZM276.988 236.636C276.988 237.597 276.803 238.411 276.434 239.078C276.064 239.746 275.564 240.253 274.934 240.599C274.306 240.946 273.601 241.119 272.82 241.119C272.036 241.119 271.33 240.945 270.702 240.595C270.074 240.246 269.576 239.739 269.206 239.074C268.84 238.406 268.657 237.594 268.657 236.636C268.657 235.676 268.84 234.862 269.206 234.195C269.576 233.527 270.074 233.02 270.702 232.673C271.33 232.327 272.036 232.153 272.82 232.153C273.601 232.153 274.306 232.327 274.934 232.673C275.564 233.02 276.064 233.527 276.434 234.195C276.803 234.862 276.988 235.676 276.988 236.636ZM274.831 236.636C274.831 236.068 274.75 235.588 274.588 235.196C274.429 234.804 274.199 234.507 273.898 234.305C273.6 234.104 273.24 234.003 272.82 234.003C272.402 234.003 272.043 234.104 271.742 234.305C271.441 234.507 271.209 234.804 271.047 235.196C270.888 235.588 270.809 236.068 270.809 236.636C270.809 237.205 270.888 237.685 271.047 238.077C271.209 238.469 271.441 238.766 271.742 238.967C272.043 239.169 272.402 239.27 272.82 239.27C273.24 239.27 273.6 239.169 273.898 238.967C274.199 238.766 274.429 238.469 274.588 238.077C274.75 237.685 274.831 237.205 274.831 236.636ZM278.219 241V232.273H281.824C282.478 232.273 283.042 232.391 283.516 232.626C283.993 232.859 284.361 233.195 284.62 233.632C284.878 234.067 285.007 234.582 285.007 235.179C285.007 235.784 284.875 236.298 284.611 236.722C284.347 237.142 283.972 237.463 283.486 237.685C283 237.903 282.425 238.013 281.76 238.013H279.48V236.351H281.368C281.686 236.351 281.952 236.31 282.165 236.227C282.381 236.142 282.544 236.014 282.655 235.844C282.766 235.67 282.821 235.449 282.821 235.179C282.821 234.909 282.766 234.686 282.655 234.51C282.544 234.331 282.381 234.197 282.165 234.109C281.949 234.018 281.684 233.973 281.368 233.973H280.328V241H278.219ZM283.132 237.011L285.306 241H283.005L280.874 237.011H283.132ZM287.336 240.02C287.029 240.02 286.767 239.912 286.548 239.696C286.332 239.48 286.225 239.219 286.228 238.912C286.225 238.611 286.332 238.354 286.548 238.141C286.767 237.925 287.029 237.817 287.336 237.817C287.626 237.817 287.882 237.925 288.103 238.141C288.328 238.354 288.441 238.611 288.444 238.912C288.441 239.116 288.387 239.303 288.282 239.47C288.18 239.638 288.045 239.771 287.877 239.871C287.713 239.97 287.532 240.02 287.336 240.02ZM287.336 235.784C287.029 235.784 286.767 235.676 286.548 235.46C286.332 235.244 286.225 234.983 286.228 234.676C286.225 234.375 286.332 234.118 286.548 233.905C286.767 233.689 287.029 233.581 287.336 233.581C287.626 233.581 287.882 233.689 288.103 233.905C288.328 234.118 288.441 234.375 288.444 234.676C288.441 234.881 288.387 235.067 288.282 235.234C288.18 235.402 288.045 235.536 287.877 235.635C287.713 235.734 287.532 235.784 287.336 235.784Z" fill="white"/>
<rect x="14" y="300" width="392" height="264" fill="#C4C4C4"/>
<rect x="2.5" y="2.5" width="415" height="695" rx="17.5" stroke="black" stroke-width="5"/>
<defs>
<filter id="filter0_d_2_24" x="93.8619" y="46.5696" width="218.112" height="26.679" filterUnits="userSpaceOnUse" color-interpolation-filters="sRGB">
<feFlood flood-opacity="0" result="BackgroundImageFix"/>
<feColorMatrix in="SourceAlpha" type="matrix" values="0 0 0 0 0 0 0 0 0 0 0 0 0 0 0 0 0 0 127 0" result="hardAlpha"/>
<feOffset dy="4"/>
<feGaussianBlur stdDeviation="2"/>
<feComposite in2="hardAlpha" operator="out"/>
<feColorMatrix type="matrix" values="0 0 0 0 0 0 0 0 0 0 0 0 0 0 0 0 0 0 0.25 0"/>
<feBlend mode="normal" in2="BackgroundImageFix" result="effect1_dropShadow_2_24"/>
<feBlend mode="normal" in="SourceGraphic" in2="effect1_dropShadow_2_24" result="shape"/>
</filter>
</defs>
</svg>
