<svg width="35" height="68" viewBox="0 0 35 68" fill="none" xmlns="http://www.w3.org/2000/svg">
<path d="M35 34C35 52.7777 19.7777 68 1 68C1 68 1 52.7777 1 34C1 15.2223 1 0 1 0C19.7777 0 35 15.2223 35 34Z" fill="#C4C4C4"/>
<path d="M35 34C35 52.7777 19.7777 68 1 68C1 68 1 52.7777 1 34C1 15.2223 1 0 1 0C19.7777 0 35 15.2223 35 34Z" fill="black" fill-opacity="0.2"/>
<path d="M35 34C35 52.7777 19.7777 68 1 68C1 68 1 52.7777 1 34C1 15.2223 1 0 1 0C19.7777 0 35 15.2223 35 34Z" fill="black" fill-opacity="0.2"/>
<path fill-rule="evenodd" clip-rule="evenodd" d="M15.058 25.7476C15.3332 26.0348 15.483 26.4195 15.4746 26.8171C15.4661 27.2148 15.3001 27.5928 15.0129 27.8681L8.43801 34.1692L14.7392 40.7442C14.8795 40.8855 14.9902 41.0535 15.0649 41.2381C15.1396 41.4227 15.1768 41.6204 15.1743 41.8196C15.1718 42.0187 15.1296 42.2154 15.0503 42.3981C14.971 42.5808 14.8561 42.7459 14.7123 42.8837C14.5685 43.0215 14.3987 43.1293 14.2128 43.2008C14.0269 43.2722 13.8286 43.306 13.6295 43.3C13.4304 43.2941 13.2345 43.2485 13.0532 43.166C12.8719 43.0835 12.7089 42.9658 12.5736 42.8196L5.23469 35.1619C4.95952 34.8747 4.8097 34.4899 4.81815 34.0923C4.82661 33.6946 4.99265 33.3166 5.27977 33.0413L12.9375 25.7025C13.2247 25.4273 13.6094 25.2775 14.0071 25.2859C14.4048 25.2944 14.7828 25.4604 15.058 25.7476Z" fill="black"/>
<path fill-rule="evenodd" clip-rule="evenodd" d="M24.056 25.9389C24.3312 26.2261 24.481 26.6108 24.4725 27.0085C24.4641 27.4061 24.298 27.7841 24.0109 28.0594L17.436 34.3605L23.7371 40.9355C24.0043 41.2241 24.1474 41.6061 24.1356 41.9993C24.1239 42.3924 23.9581 42.7652 23.6742 43.0373C23.3902 43.3095 23.0107 43.4592 22.6174 43.4542C22.2242 43.4493 21.8486 43.2901 21.5715 43.0109L14.2327 35.3532C13.9575 35.066 13.8077 34.6812 13.8161 34.2836C13.8246 33.8859 13.9906 33.5079 14.2777 33.2327L21.9355 25.8938C22.2227 25.6186 22.6074 25.4688 23.0051 25.4772C23.4027 25.4857 23.7807 25.6517 24.056 25.9389V25.9389Z" fill="black"/>
</svg>
