<svg width="35" height="69" viewBox="0 0 35 69" fill="none" xmlns="http://www.w3.org/2000/svg">
<path d="M0.111595 34.1114C0.0499592 15.3338 15.2222 0.0616381 33.9998 2.6226e-06C33.9998 2.6226e-06 34.0498 15.2222 34.1114 33.9998C34.1731 52.7774 34.223 67.9996 34.223 67.9996C15.4454 68.0613 0.17323 52.889 0.111595 34.1114Z" fill="#FADF38"/>
<path d="M0.111595 34.1114C0.0499592 15.3338 15.2222 0.0616381 33.9998 2.6226e-06C33.9998 2.6226e-06 34.0498 15.2222 34.1114 33.9998C34.1731 52.7774 34.223 67.9996 34.223 67.9996C15.4454 68.0613 0.17323 52.889 0.111595 34.1114Z" fill="black" fill-opacity="0.2"/>
<path d="M0.111595 34.1114C0.0499592 15.3338 15.2222 0.0616381 33.9998 2.6226e-06C33.9998 2.6226e-06 34.0498 15.2222 34.1114 33.9998C34.1731 52.7774 34.223 67.9996 34.223 67.9996C15.4454 68.0613 0.17323 52.889 0.111595 34.1114Z" fill="black" fill-opacity="0.2"/>
<path d="M0.111595 34.1114C0.0499592 15.3338 15.2222 0.0616381 33.9998 2.6226e-06C33.9998 2.6226e-06 34.0498 15.2222 34.1114 33.9998C34.1731 52.7774 34.223 67.9996 34.223 67.9996C15.4454 68.0613 0.17323 52.889 0.111595 34.1114Z" fill="black" fill-opacity="0.2"/>
<path d="M0.111595 34.1114C0.0499592 15.3338 15.2222 0.0616381 33.9998 2.6226e-06C33.9998 2.6226e-06 34.0498 15.2222 34.1114 33.9998C34.1731 52.7774 34.223 67.9996 34.223 67.9996C15.4454 68.0613 0.17323 52.889 0.111595 34.1114Z" fill="black" fill-opacity="0.2"/>
<path fill-rule="evenodd" clip-rule="evenodd" d="M19.4395 42.5605C19.1583 42.2792 19.0003 41.8977 19.0003 41.5C19.0003 41.1023 19.1583 40.7208 19.4395 40.4395L25.879 34L19.4395 27.5605C19.2962 27.4221 19.182 27.2566 19.1033 27.0736C19.0247 26.8906 18.9834 26.6938 18.9816 26.4946C18.9799 26.2954 19.0178 26.0979 19.0933 25.9136C19.1687 25.7292 19.2801 25.5617 19.4209 25.4209C19.5617 25.2801 19.7292 25.1687 19.9136 25.0933C20.0979 25.0178 20.2954 24.9799 20.4946 24.9816C20.6938 24.9834 20.8906 25.0247 21.0736 25.1033C21.2566 25.182 21.4221 25.2962 21.5605 25.4395L29.0605 32.9395C29.3417 33.2208 29.4997 33.6023 29.4997 34C29.4997 34.3977 29.3417 34.7792 29.0605 35.0605L21.5605 42.5605C21.2792 42.8417 20.8977 42.9997 20.5 42.9997C20.1023 42.9997 19.7208 42.8417 19.4395 42.5605Z" fill="black"/>
<path fill-rule="evenodd" clip-rule="evenodd" d="M10.4395 42.5605C10.1583 42.2792 10.0003 41.8977 10.0003 41.5C10.0003 41.1023 10.1583 40.7208 10.4395 40.4395L16.879 34L10.4395 27.5605C10.1662 27.2776 10.0151 26.8987 10.0185 26.5054C10.0219 26.1121 10.1796 25.7359 10.4578 25.4578C10.7359 25.1797 11.1121 25.0219 11.5054 25.0185C11.8987 25.0151 12.2776 25.1663 12.5605 25.4395L20.0605 32.9395C20.3417 33.2208 20.4997 33.6023 20.4997 34C20.4997 34.3977 20.3417 34.7792 20.0605 35.0605L12.5605 42.5605C12.2792 42.8417 11.8977 42.9997 11.5 42.9997C11.1022 42.9997 10.7208 42.8417 10.4395 42.5605V42.5605Z" fill="black"/>
</svg>
