<svg width="35" height="69" viewBox="0 0 35 69" fill="none" xmlns="http://www.w3.org/2000/svg">
<path d="M0.111595 34.1114C0.0499592 15.3338 15.2222 0.0616381 33.9998 2.6226e-06C33.9998 2.6226e-06 34.0498 15.2222 34.1114 33.9998C34.1731 52.7774 34.223 67.9996 34.223 67.9996C15.4454 68.0613 0.17323 52.889 0.111595 34.1114Z" fill="#C4C4C4"/>
<path d="M0.111595 34.1114C0.0499592 15.3338 15.2222 0.0616381 33.9998 2.6226e-06C33.9998 2.6226e-06 34.0498 15.2222 34.1114 33.9998C34.1731 52.7774 34.223 67.9996 34.223 67.9996C15.4454 68.0613 0.17323 52.889 0.111595 34.1114Z" fill="black" fill-opacity="0.2"/>
<path d="M0.111595 34.1114C0.0499592 15.3338 15.2222 0.0616381 33.9998 2.6226e-06C33.9998 2.6226e-06 34.0498 15.2222 34.1114 33.9998C34.1731 52.7774 34.223 67.9996 34.223 67.9996C15.4454 68.0613 0.17323 52.889 0.111595 34.1114Z" fill="black" fill-opacity="0.2"/>
<path fill-rule="evenodd" clip-rule="evenodd" d="M20.4395 42.5605C20.1583 42.2792 20.0003 41.8977 20.0003 41.5C20.0003 41.1023 20.1583 40.7208 20.4395 40.4395L26.879 34L20.4395 27.5605C20.2962 27.4221 20.182 27.2566 20.1033 27.0736C20.0247 26.8906 19.9834 26.6938 19.9816 26.4946C19.9799 26.2954 20.0178 26.0979 20.0933 25.9136C20.1687 25.7292 20.2801 25.5617 20.4209 25.4209C20.5617 25.2801 20.7292 25.1687 20.9136 25.0933C21.0979 25.0178 21.2954 24.9799 21.4946 24.9816C21.6938 24.9834 21.8906 25.0247 22.0736 25.1033C22.2566 25.182 22.4221 25.2962 22.5605 25.4395L30.0605 32.9395C30.3417 33.2208 30.4997 33.6023 30.4997 34C30.4997 34.3977 30.3417 34.7792 30.0605 35.0605L22.5605 42.5605C22.2792 42.8417 21.8977 42.9997 21.5 42.9997C21.1023 42.9997 20.7208 42.8417 20.4395 42.5605Z" fill="black"/>
<path fill-rule="evenodd" clip-rule="evenodd" d="M11.4395 42.5605C11.1583 42.2792 11.0003 41.8977 11.0003 41.5C11.0003 41.1023 11.1583 40.7208 11.4395 40.4395L17.879 34L11.4395 27.5605C11.1662 27.2776 11.0151 26.8987 11.0185 26.5054C11.0219 26.1121 11.1796 25.7359 11.4578 25.4578C11.7359 25.1797 12.1121 25.0219 12.5054 25.0185C12.8987 25.0151 13.2776 25.1663 13.5605 25.4395L21.0605 32.9395C21.3417 33.2208 21.4997 33.6023 21.4997 34C21.4997 34.3977 21.3417 34.7792 21.0605 35.0605L13.5605 42.5605C13.2792 42.8417 12.8977 42.9997 12.5 42.9997C12.1022 42.9997 11.7208 42.8417 11.4395 42.5605V42.5605Z" fill="black"/>
</svg>
