<svg width="34" height="68" viewBox="0 0 34 68" fill="none" xmlns="http://www.w3.org/2000/svg">
<path d="M34 34C34 52.7777 18.7777 68 0 68C0 68 0 52.7777 0 34C0 15.2223 0 0 0 0C18.7777 0 34 15.2223 34 34Z" fill="#FADF38"/>
<path d="M34 34C34 52.7777 18.7777 68 0 68C0 68 0 52.7777 0 34C0 15.2223 0 0 0 0C18.7777 0 34 15.2223 34 34Z" fill="black" fill-opacity="0.2"/>
<path d="M34 34C34 52.7777 18.7777 68 0 68C0 68 0 52.7777 0 34C0 15.2223 0 0 0 0C18.7777 0 34 15.2223 34 34Z" fill="black" fill-opacity="0.2"/>
<path d="M34 34C34 52.7777 18.7777 68 0 68C0 68 0 52.7777 0 34C0 15.2223 0 0 0 0C18.7777 0 34 15.2223 34 34Z" fill="black" fill-opacity="0.2"/>
<path d="M34 34C34 52.7777 18.7777 68 0 68C0 68 0 52.7777 0 34C0 15.2223 0 0 0 0C18.7777 0 34 15.2223 34 34Z" fill="black" fill-opacity="0.2"/>
<path fill-rule="evenodd" clip-rule="evenodd" d="M15.7055 25.7947C15.9931 26.0694 16.1598 26.4471 16.169 26.8447C16.1782 27.2424 16.0291 27.6274 15.7545 27.9151L9.46556 34.5017L16.0522 40.7906C16.1986 40.9257 16.3167 41.0885 16.3995 41.2696C16.4823 41.4508 16.5282 41.6466 16.5346 41.8457C16.5409 42.0448 16.5075 42.2431 16.4364 42.4291C16.3653 42.6152 16.2578 42.7852 16.1202 42.9292C15.9827 43.0733 15.8178 43.1885 15.6353 43.2682C15.4527 43.3478 15.2561 43.3904 15.057 43.3932C14.8578 43.3961 14.6601 43.3593 14.4753 43.2849C14.2905 43.2106 14.1224 43.1001 13.9808 42.9601L6.30942 35.6355C6.02179 35.3608 5.85504 34.9831 5.84584 34.5854C5.83665 34.1878 5.98576 33.8028 6.26039 33.515L13.585 25.8437C13.8597 25.5561 14.2375 25.3893 14.6351 25.3801C15.0327 25.3709 15.4177 25.52 15.7055 25.7947Z" fill="black"/>
<path fill-rule="evenodd" clip-rule="evenodd" d="M24.7031 25.5866C24.9907 25.8613 25.1574 26.239 25.1666 26.6367C25.1758 27.0343 25.0267 27.4193 24.7521 27.707L18.4632 34.2937L25.0498 40.5826C25.3295 40.8591 25.4894 41.2344 25.4951 41.6277C25.5007 42.021 25.3517 42.4007 25.0801 42.6852C24.8085 42.9697 24.436 43.1361 24.0429 43.1486C23.6498 43.1611 23.2675 43.0187 22.9784 42.7521L15.307 35.4274C15.0194 35.1527 14.8526 34.775 14.8434 34.3774C14.8342 33.9797 14.9834 33.5947 15.258 33.307L22.5826 25.6356C22.8573 25.348 23.235 25.1813 23.6327 25.1721C24.0303 25.1629 24.4153 25.312 24.7031 25.5866V25.5866Z" fill="black"/>
</svg>
