<svg width="56" height="56" viewBox="0 0 56 56" fill="none" xmlns="http://www.w3.org/2000/svg">
<circle cx="28" cy="28" r="26.5" fill="#C4C4C4"/>
<circle cx="28" cy="28" r="26.5" fill="black" fill-opacity="0.2"/>
<circle cx="28" cy="28" r="26.5" fill="black" fill-opacity="0.2"/>
<circle cx="28" cy="28" r="26.5" stroke="#FADF38" stroke-width="3"/>
<path d="M39.4425 31.1925C37.3965 32.0152 35.1539 32.2186 32.9933 31.7772C30.8327 31.3357 28.8495 30.2691 27.2902 28.7098C25.7309 27.1505 24.6642 25.1673 24.2228 23.0067C23.7814 20.8461 23.9847 18.6035 24.8075 16.5575C22.3846 17.5334 20.3767 19.3217 19.1279 21.6159C17.8791 23.9101 17.4672 26.5672 17.9629 29.1317C18.4585 31.6963 19.8308 34.0086 21.8446 35.6722C23.8583 37.3358 26.388 38.2472 29 38.25C31.2461 38.2501 33.4409 37.578 35.3019 36.3202C37.1629 35.0625 38.605 33.2767 39.4425 31.1925Z" stroke="white" stroke-width="2" stroke-linecap="round" stroke-linejoin="round"/>
</svg>
