<svg width="68" height="69" viewBox="0 0 68 69" fill="none" xmlns="http://www.w3.org/2000/svg">
<circle cx="34" cy="34" r="33.5" fill="#FADF38"/>
<circle cx="34" cy="34" r="33.5" stroke="black"/>
<circle cx="34" cy="34" r="33.5" stroke="black" stroke-opacity="0.2"/>
<path d="M41.7973 32.6427L32.7392 26.602C32.3121 26.3171 31.8156 26.1535 31.3027 26.1288C30.7899 26.1042 30.28 26.2194 29.8275 26.462C29.375 26.7047 28.997 27.0658 28.7338 27.5066C28.4707 27.9475 28.3322 28.4516 28.3333 28.965V41.0435C28.3333 41.5565 28.4724 42.0598 28.736 42.4999C28.9996 42.9399 29.3777 43.3002 29.83 43.5422C30.2823 43.7841 30.7918 43.8988 31.3041 43.8739C31.8165 43.849 32.3125 43.6855 32.7392 43.4008L41.7973 37.3602C42.1854 37.1014 42.5036 36.7509 42.7236 36.3397C42.9437 35.9284 43.0588 35.4692 43.0588 35.0028C43.0588 34.5364 42.9437 34.0773 42.7236 33.666C42.5036 33.2548 42.1854 32.9043 41.7973 32.6455V32.6427Z" stroke="black" stroke-width="2" stroke-linecap="round" stroke-linejoin="round"/>
<path d="M59.5 35C59.5 38.3487 58.8404 41.6646 57.5589 44.7584C56.2774 47.8522 54.3991 50.6633 52.0312 53.0312C49.6633 55.3991 46.8522 57.2774 43.7584 58.5589C40.6646 59.8404 37.3487 60.5 34 60.5C30.6513 60.5 27.3354 59.8404 24.2416 58.5589C21.1478 57.2774 18.3367 55.3991 15.9688 53.0312C13.6009 50.6633 11.7226 47.8522 10.4411 44.7584C9.15958 41.6646 8.5 38.3487 8.5 35C8.5 28.237 11.1866 21.751 15.9688 16.9688C20.751 12.1866 27.237 9.5 34 9.5C40.763 9.5 47.249 12.1866 52.0312 16.9688C56.8134 21.751 59.5 28.237 59.5 35Z" stroke="black" stroke-width="2" stroke-linecap="round" stroke-linejoin="round"/>
</svg>
