<svg width="56" height="56" viewBox="0 0 56 56" fill="none" xmlns="http://www.w3.org/2000/svg">
<circle cx="28" cy="28" r="26.5" fill="#C4C4C4" stroke="#FADF38" stroke-width="3"/>
<path d="M28 16.75V18V16.75ZM28 38V39.25V38ZM39.25 28H38H39.25ZM18 28H16.75H18ZM35.955 35.955L35.0712 35.0712L35.955 35.955ZM20.9287 20.9287L20.045 20.045L20.9287 20.9287ZM35.955 20.045L35.0712 20.9287L35.955 20.045ZM20.9287 35.0712L20.045 35.955L20.9287 35.0712ZM33 28C33 29.3261 32.4732 30.5979 31.5355 31.5355C30.5979 32.4732 29.3261 33 28 33C26.6739 33 25.4021 32.4732 24.4645 31.5355C23.5268 30.5979 23 29.3261 23 28C23 26.6739 23.5268 25.4021 24.4645 24.4645C25.4021 23.5268 26.6739 23 28 23C29.3261 23 30.5979 23.5268 31.5355 24.4645C32.4732 25.4021 33 26.6739 33 28V28Z" stroke="black" stroke-width="2" stroke-linecap="round" stroke-linejoin="round"/>
</svg>
